<?xml version="1.0" standalone="yes"?>
<svg xmlns="http://www.w3.org/2000/svg" width="1254" height="1254" viewBox="0 0 1254 1254">
<path style="fill:#141c34; stroke:none;" d="M626 60.9236C618.935 62.0344 611.452 69.1145 605 72.2161C591.618 78.6488 577.338 83.3511 563 87.1157C558.041 88.4177 553.034 89.1583 548.001 90.0848C545.65 90.5176 542.754 90.8876 541.603 93.3032C540.088 96.4838 541 101.563 541 105L541 132C541 147.806 539.52 164.409 542.46 180C547.573 207.112 566.839 226.552 589 241.333C598.079 247.389 607.259 253.292 617 258.244C620.534 260.04 624.848 263.084 629 262.246C638.341 260.361 648.98 251.57 657 246.575C684.121 229.682 707.432 207.908 712.561 175C714.515 162.463 713 148.68 713 136L713 105C713 101.613 714.154 95.4497 711.972 92.5887C709.537 89.3944 701.665 89.5212 698 88.6257C686.145 85.7292 674.405 82.6066 663 78.189C654.296 74.8174 646.088 70.7921 638 66.1497C634.602 64.199 630.173 60.2676 626 60.9236z"/>
<path style="fill:#fdfdfe; stroke:none;" d="M626 65.9768C619.45 66.8833 611.987 73.8234 606 76.7407C592.903 83.1234 578.999 87.3921 565 91.2546C560.429 92.5159 547.885 92.6022 545.603 97.314C544.188 100.236 545 104.841 545 108L545 133C545 164.436 544.365 194.793 568.039 218.985C575.153 226.254 583.564 232.378 592 238C599.797 243.196 607.843 247.968 616 252.576C619.42 254.508 623.877 257.692 628 257.15C636.927 255.975 647.408 246.979 655 242.399C678.149 228.434 700.015 209.4 706.497 182C709.895 167.634 709 152.636 709 138L709 108C709 104.824 710.024 99.2802 707.972 96.5887C705.678 93.5798 698.453 93.478 695 92.6257C683.826 89.8683 672.643 87.2129 662 82.7161C653.806 79.2542 645.678 75.9392 638 71.3966C634.667 69.4248 630.124 65.406 626 65.9768z"/>
<path style="fill:#141c34; stroke:none;" d="M579 117C567.929 117.835 567 126.992 567 136L567 195C580.126 194.891 592.095 193.845 605 197.721C609.547 199.087 613.828 201.056 618 203.309C620.741 204.789 623.761 207.235 627 207.332C631.231 207.458 635.381 203.607 639 201.809C645.033 198.812 652.342 196.415 659 195.325C664.281 194.46 670.67 193.689 676 194.171C678.776 194.421 682.925 195.91 685.397 193.972C689.151 191.027 687 178.359 687 174L687 140C687 135.236 688.177 128.579 686.397 124.089C684.565 119.473 679.565 117.341 675 117C674.737 108.996 669.548 109.819 663 111.211C653.94 113.137 644.392 116.835 637 122.529C634.286 124.62 630.718 129.943 627 129.944C623.618 129.946 620.406 125.418 618 123.468C610.148 117.104 600.669 113.549 591 111.015C584.482 109.307 579.253 109.311 579 117z"/>
<path style="fill:#fdfdfe; stroke:none;" d="M583 114C583.915 135.313 584 156.617 584 178C601.099 179.361 611.685 188.629 625 198L625 155C625 149.302 626.435 141.227 623.821 136C616.915 122.193 596.79 116.674 583 114M669 114C655.496 118.609 639.095 121.751 630.893 135C627.638 140.259 629 148.067 629 154L629 198C642.017 188.839 653.076 178.738 670 178L670 134C670 127.846 671.395 119.707 669 114M571 126L571 190C586.14 190 599.68 190.484 614 196C610.641 192.18 605.936 190.839 601 190C602.534 188.977 602.402 189.196 603 188C598.544 185.627 593.949 184.023 589 183.004C586.376 182.464 582.596 182.431 580.603 180.401C577.347 177.082 579 168.279 579 164L579 121L571 126M675 121L675 165C675 169.077 676.533 177.237 673.397 180.397C670.492 183.324 662.9 183.258 659 184.439C651.755 186.633 645.424 191.132 639 195C643.805 196.009 649.247 192.699 654 191.668C663.689 189.567 673.204 188.762 683 190L683 140C683 132.209 683.608 124.224 675 121z"/>
<path style="fill:#141c34; stroke:none;" d="M512.019 150.786C503.927 153.494 507.959 165.457 515.941 162.392C522.942 159.704 519.454 148.298 512.019 150.786M738.059 150.758C730.441 153.689 735.265 165.336 742.941 162.392C750.482 159.5 745.642 147.84 738.059 150.758M382 159L424 159L453 159L485 159C486.516 158.997 495.202 159.302 492.824 155.545C491.71 153.784 488.767 154.038 486.999 154.005C482.003 153.91 476.997 154 472 154L409 154C402.173 154 383.422 150.476 382 159M761 159L803 159L832 159L863 159C864.608 158.999 872.911 159.768 871.539 156.17C870.752 154.106 867.794 154.098 865.999 154.019C861.018 153.802 855.986 154 851 154L788 154C781.173 154 762.423 150.476 761 159M227 331C227.991 326.979 228.356 322.763 230.189 319C232.622 314.005 236.605 310.034 239 305C241.106 305.819 242.347 306.487 244 308C245.307 304.192 242.398 300.912 243.485 297C246.528 286.039 252.941 276.426 255.335 265C259.012 247.449 257.146 230.635 257 213C247.705 214.434 241.017 225.844 235.91 233C223.734 250.063 216.999 268.096 217 289C217.001 297.066 217.327 305.682 221 313L223 313C225.11 303.295 220.391 292.97 221.09 283C222.664 260.513 236.093 235.637 253 221C253 240.203 253.892 258.5 246.935 277C243.334 286.578 238.646 296.221 233.395 305C230.781 309.37 227.074 313.274 225.086 318C222.15 324.976 224.054 333.114 220.457 340C215.724 349.059 208.841 357.305 203.425 366C191.863 384.562 181.398 403.801 173 424C171.637 419.472 174.695 406.685 167.015 407.466C164.764 407.695 162.653 409.593 162.917 411.98C163.184 414.399 165.604 416.119 166.691 418.17C168.692 421.947 169.501 427.787 168.954 432C167.83 440.653 163.095 449.714 160.333 458C155.268 473.197 151.021 488.499 147 504C145.449 499.286 147.77 491.397 140 495C140.07 486.592 142.592 478.423 142.961 470C143.878 449.056 139.633 430.187 131.421 411C128.09 403.217 123.805 390.055 116 386C101.67 413.196 99.1162 451.122 112.22 479C116.172 487.408 121.224 498.821 130 503C131.074 497.172 126.599 493.57 123.52 489C118.848 482.064 114.605 474.121 112.478 466C110.393 458.04 108.079 449.282 108.079 441C108.079 425.14 112.958 410.118 117 395L119 395C121.396 403.317 126.328 410.944 129.551 419C134.759 432.02 138.112 445.96 138.907 460C139.646 473.061 135.021 486.077 134 499C137.013 498.492 137.873 497.841 139 495C140.769 500.093 144.476 505.787 145.328 511C145.854 514.218 144.457 517.817 144.001 521C142.853 529.008 141.53 536.979 140.425 545C137.471 566.448 136 588.37 136 610C133.27 607.268 129.781 604.506 128.028 601C125.851 596.648 126.301 589.803 125.914 585C125.377 578.323 124.095 571.55 122.714 565C118.684 545.889 107.819 528.995 95.8002 514C90.8398 507.812 85.3021 500.405 78 497C75.0052 504.997 75 514.527 75 523C75 547.213 80.8239 572.61 96.0147 592C101.595 599.123 108.951 609.466 118 612C118.221 606.051 112.9 602.925 109.004 598.999C102.193 592.137 96.5615 584.443 91.8619 576C80.0878 554.848 78.0154 528.616 81 505C98.0547 522.82 112.74 543.67 118.497 568C120.446 576.237 121.032 584.613 121.83 593C122.165 596.514 121.369 600.48 122.318 603.895C123.219 607.137 126.419 608.247 128.676 610.39C131.596 613.162 134.613 617.19 135.971 621C137.239 624.556 136.835 628.311 137.09 632C137.618 639.669 138.24 647.359 139.155 655C141.322 673.099 146.625 691.828 147 710C144.59 707.711 138.294 700.994 137 707C132.339 696.485 129.589 685.356 124.398 675C114.851 655.952 99.6173 639.825 82 628.001C76.2741 624.158 70.6916 619.931 64 618C61.8117 625.616 65.2476 635.358 66.8009 643C72.0271 668.713 83.8572 693.761 105 710.112C111.96 715.494 124.761 725.785 134 724C131.331 718.863 125.774 717.387 121 714.547C113.228 709.924 105.349 704.551 99.0895 697.985C79.9904 677.951 72.9769 651.415 68 625C91.2744 637.958 111.559 658.705 122.691 683C126.538 691.396 129.426 700.046 131.626 709C132.152 711.141 132.407 717.524 135.165 718.079C138.844 718.819 137.016 708.934 137 707C140.57 709.554 143.506 712.263 148 712C153.365 731.083 158.032 750.287 164.692 769C175.58 799.594 189.21 828.795 205.281 857C214.027 872.351 223.334 887.443 233.347 902C238.337 909.253 245.726 915.757 246 925C246.683 923.494 246.826 922.685 247 921C251.649 925.688 256.226 930.579 260 936C255.633 934.51 251.937 932.368 248 930C245.841 940.464 258.109 939.415 265 942.51C268.184 943.94 270.564 946.582 273 949.001C287.69 963.59 302.172 978.202 318 991.576C329.994 1001.71 343.442 1010.45 355 1021C347.31 1020.4 339.605 1022.62 332 1020.57C327.865 1019.45 324.519 1016 321 1013.7C314.552 1009.48 307.819 1005.37 301 1001.78C277.628 989.471 250.351 983.206 224 986.87C214.26 988.224 204.441 989.918 195 992.721C192.662 993.415 187.401 994.146 186.176 996.563C184.495 999.879 189.941 1003.68 192.001 1005.39C199.835 1011.88 208.271 1017.59 217 1022.8C253.032 1044.29 293.113 1047 332 1032L332 1030C326.029 1028.63 321.675 1030.95 316 1032.57C308.291 1034.78 300.032 1036.61 292 1036.96C263.356 1038.21 236.868 1030.17 213 1014.33C205.753 1009.52 197.752 1004.58 192 998C203.458 996.457 214.426 992.29 226 991.17C252.711 988.585 278.742 995.165 302 1008.14C310.893 1013.1 319.683 1017.78 326 1026C331.282 1024.74 336.6 1025 342 1025C342.323 1034.92 351.948 1034.41 353 1025C364.961 1025.01 373.155 1032.48 383 1038.58C397.599 1047.62 412.643 1056.07 428 1063.75C471.406 1085.46 516.015 1103.47 563 1115.88C579.01 1120.11 596.386 1126.28 613 1127C609.118 1128.64 605.126 1129.22 601 1130C598.625 1126.38 595.612 1127.49 592 1129C592 1130.8 592.014 1130.52 593 1132C561.707 1138.46 530.453 1144.9 499 1150.58C489.354 1152.31 479.717 1154.41 470 1155.72C464.398 1156.47 458.398 1156.4 453 1158L453 1160C467.338 1164.24 485.701 1157.74 500 1155.25C530.119 1150.01 559.965 1143.39 590 1137.74C601.793 1135.52 614.941 1129.94 627 1130.26C642.007 1130.66 658.36 1136.36 673 1139.58C697.877 1145.04 723.024 1149.24 748 1154.2C759.575 1156.5 771.268 1158.73 783 1160.05C789.07 1160.73 795.039 1161.76 801 1160L801 1158C795.575 1156.39 789.617 1156.37 784 1155.58C773.296 1154.07 762.607 1152.24 752 1150.2C732.638 1146.46 713.314 1142.65 694 1138.66C684.732 1136.75 675.128 1135.59 666.018 1132.94C661.18 1131.53 658.069 1127.49 653 1126C660.964 1122.47 669.626 1121.31 678 1119.12C693.397 1115.07 708.768 1110.92 724 1106.28C757.021 1096.23 789.178 1082.16 820 1066.75C837.03 1058.24 853.757 1049.14 870 1039.19C880.138 1032.98 888.712 1025.01 901 1025C901.097 1026.28 900.997 1027.79 901.603 1028.99C906.698 1039.07 917.385 1025.94 908.852 1021.03C905.594 1019.16 901.532 1021.21 898 1020C908.934 1014.8 918.718 1005.92 928 998.25C946.331 983.109 963.181 966.784 980 950C982.774 947.232 985.462 944.196 989 942.394C994.437 939.626 1007.93 940.293 1006 932L994 936C1004.73 920.589 1017.6 906.773 1028 891C1059.53 843.17 1085.5 790.572 1100.12 735C1106.79 709.602 1111.59 684.079 1114.71 658C1116.1 646.481 1114.58 633.131 1117.72 622C1118.91 617.794 1122.18 613.295 1125.32 610.299C1127.6 608.125 1130.78 607.254 1131.68 603.942C1132.62 600.502 1131.83 596.535 1132.17 593C1132.97 584.555 1133.69 576.291 1135.65 568C1141.44 543.531 1156.25 523.187 1173 505C1176 528.755 1174.66 554.676 1162.39 576C1158.24 583.199 1153.72 589.975 1147.96 596C1143.34 600.83 1137.07 605.075 1136 612C1145.57 609.394 1153.12 598.587 1158.87 591C1173.67 571.455 1179 547.116 1179 523C1179 514.527 1178.99 504.997 1176 497C1168.66 500.423 1163.32 507.862 1158.25 514C1144.86 530.209 1135.06 548.385 1130.66 569C1129.49 574.51 1128.29 580.366 1128.04 586C1127.85 590.39 1128.92 595.744 1127.26 599.911C1125.59 604.113 1121.08 607.795 1118 611C1118 590.887 1117.43 569.93 1114.57 550C1112.22 533.615 1107.34 516.529 1107 500C1111.66 499.105 1111.9 495.26 1112 491C1109.37 493.355 1107.71 495.922 1106 499C1101.75 483.901 1097.65 468.888 1092.67 454C1090.16 446.506 1085.87 438.801 1084.56 431C1083.28 423.414 1088.59 419.353 1090.35 412.915C1090.96 410.709 1090.04 408.474 1087.85 407.623C1079.38 404.323 1081.94 418.692 1081 423C1073.25 408.469 1067.05 393.171 1058.55 379C1053.3 370.255 1047.97 361.498 1042.33 353C1039.08 348.107 1034.85 343.359 1032.42 338C1029.59 331.777 1031.53 324.259 1028.91 318C1023.79 305.761 1014.49 295.447 1009.45 283C1003.71 268.821 1000.78 253.261 1000.1 238C999.858 232.404 1001 226.655 1001 221C1017.35 237.357 1030.56 258.523 1032.83 282C1033.81 292.097 1028.38 303.473 1031 313L1033 313C1044.25 286.85 1034.67 256.02 1018.84 234C1014.65 228.17 1010.18 222.017 1004.96 217.059C1003.51 215.687 1000.86 212.948 998.603 214.176C996.809 215.152 996.954 218.292 996.719 220.001C995.937 225.677 996 231.278 996 237C996 250.817 997.809 264.892 1002.34 278C1004.6 284.53 1008.39 290.502 1010.56 297C1011.75 300.581 1010.95 304.359 1012 308L1016 306C1019.07 315.036 1025.79 319.641 1026 330C1019.77 322.847 1014.37 314.948 1007.91 308C996.924 296.186 984.446 285.922 973.214 274.424C967.653 268.731 968.934 256.483 961 254C961.089 258.194 962.071 261.937 963 266C955.418 259.888 947.709 253.959 940 248.011C935.803 244.772 931.262 242.227 928 238C930.364 237.518 930.518 237.364 931 235C928.398 235.165 925.479 236.286 922.911 235.775C916.705 234.541 910.861 229.444 905 227.012C894.162 222.514 882.754 219.292 871 218.985C866.727 218.874 855.892 215.533 852.748 219.603C849.939 223.239 857.661 229.646 859.718 231.999C868.687 242.258 880.305 251.055 893 256.177C906.158 261.487 918.404 261.103 931.996 263.147C935.027 263.603 937.195 266.213 940.13 266.543C945.155 267.108 948.445 263.474 954 265.934C963.221 270.019 971.576 280.149 979 286.831C1003.66 309.022 1028.3 336.515 1044 366C1037.31 362.818 1030.94 358.526 1024 356L1023 357C1027.56 366.665 1039.6 368.036 1047.79 373.023C1053.14 376.283 1057.01 386.602 1060 392C1055.86 390.151 1050.42 386.128 1046 385.65C1043.29 385.357 1040.71 386.902 1038 386.972C1031.69 387.136 1024.17 385.826 1018 384.489C996.654 379.867 977.471 366.915 965 349C978.828 349 993.364 350.95 1006 356.89C1014.04 360.671 1021 369.346 1030 370C1027.74 364.292 1022.98 361.298 1018 358.004C1006.25 350.236 992.028 345.984 978 345.025C972.979 344.682 968.061 343.798 963.005 344.019C961.272 344.095 958.331 344.087 957.907 346.318C957.321 349.395 961.183 352.906 962.921 355C968.639 361.894 974.871 368.314 982 373.764C992.956 382.14 1006.4 387.431 1020 389.561C1025.53 390.426 1031.53 389.942 1036.96 391.313C1039.69 392.003 1041.44 394.414 1044.09 395.154C1046.87 395.93 1049.26 394.057 1052 394.132C1055.07 394.216 1059.31 396.326 1061.79 398.074C1066.64 401.496 1069.28 409.757 1071.69 415C1128.77 539.308 1125.47 687.599 1067 811C1065.13 806.779 1064.35 802.348 1062.78 798.062C1062.23 796.564 1061.19 794.674 1059.26 795.06C1057.01 795.51 1057.26 798.376 1057.65 800.015C1059 805.631 1062.73 811.079 1062.86 817C1062.97 821.805 1059.32 826.848 1057.25 831C1051.3 842.891 1043.62 853.974 1038 866C1035.54 861.869 1034.01 858.792 1029 858C1030.6 861.876 1033.43 865.611 1033.29 870C1033 878.977 1022.74 888.099 1019 896C1017.56 891.245 1019.37 884.282 1016.97 880.148C1012.65 872.708 1001.44 882.011 1010.06 887.972C1011.26 888.799 1012.63 888.787 1014 889C1014.29 892.624 1015.39 896.416 1014.35 900C1013.05 904.469 1009.63 908.365 1006.87 912C1000.17 920.81 992.674 929.012 985.039 937C954.074 969.396 921.392 999.084 884 1024C825.499 1062.98 759.13 1093.11 691 1110.63C676.017 1114.48 661.167 1118.4 646 1121.45C639.703 1122.72 633.491 1124.97 627 1124.97C618.968 1124.97 610.775 1122.26 603 1120.5C587.261 1116.94 571.537 1113.26 556 1108.86C491.148 1090.48 428.17 1062.78 372 1025.33C325.583 994.392 281.055 956.37 246.887 912C240.192 903.306 233.925 894.271 228.053 885C225.642 881.192 221.908 876.494 221.028 872C219.995 866.729 224.751 862.029 229 860C230.298 864.747 232.16 868.976 235 873C238.945 868.836 235.368 864.676 233.698 860C230.77 851.8 229.641 842.658 229.09 834C227.803 813.783 238.026 792.28 249 776C255.603 796.294 260.657 815.52 257.572 837C256.48 844.598 254.22 851.979 251.139 859C248.967 863.95 245.729 868.504 247 874L249 874C269.524 840.465 264.565 802.975 251 768C243.985 770.157 240.39 779.983 237.004 786C224.691 807.877 222.041 833.811 228 858C222.242 858.434 219.14 861.355 218 867C210.195 857.572 204.782 845.681 198.861 835C196.117 830.049 191.781 823.703 191.114 818C190.501 812.751 194.008 806.894 195.567 802.001C196.149 800.174 197.372 796.593 194.687 795.752C189.71 794.191 188.397 807.844 187 811C173.84 779.348 161.333 747.522 153.651 714C133.113 624.381 138.916 532.475 169.692 446C173.338 435.755 177.721 425.92 182.139 416C184.517 410.659 186.615 403.749 190.637 399.394C193.042 396.79 198.13 394.357 201.715 394.28C205.514 394.198 210.564 397.638 212.338 391.942C213.388 388.571 210.456 385.153 206.995 385.465C202.716 385.852 198.101 390.372 194 392C198.933 383.94 202.848 375.236 209 368C213.006 374.15 222.125 366.329 227 364L223 370C231.57 371.087 240.457 360.556 248 356.809C260.678 350.512 276.035 349 290 349C278.543 360.971 267.764 373.161 252 379.547C240.536 384.191 228.94 384.783 217 387L217 391C241.542 390.932 264.539 382.404 282 364.999C286.119 360.893 290.209 356.673 293.694 352C294.827 350.482 296.564 348.384 296.118 346.318C295.086 341.538 282.191 344.687 279 344.911C267.514 345.716 256.605 347.498 246 352.312C239.581 355.227 234.084 359.538 228 363L228 359C221.741 359.832 217.548 364.541 211 364C228.324 335.797 249.942 308.303 275 286.576C282.504 280.069 290.146 271.201 299 266.573C302.1 264.952 305.7 264.985 309 264C313.101 270.283 315.912 264.624 321.039 263.317C324.18 262.516 327.787 263.064 331 262.985C351.45 262.484 370.607 253.145 386 240.246C392.389 234.893 399.946 227.883 403 220C387.653 215.464 367.541 219.937 353 225.425C346.193 227.994 339.971 232.866 333 234.74C329.424 235.701 325.65 235.065 322 235L322 238L327 238C323.828 240.913 320.496 243.487 317 246C315.839 243.335 313.169 239.998 313.414 237C313.66 234.004 316.436 231.326 318.09 229C321.503 224.202 324.661 219.118 327.572 214C334.71 201.451 339.779 187.048 343 173C334.941 171.443 325.303 179.288 319 183.721C301.656 195.917 287.349 213.213 285.171 235C283.898 247.723 289.951 258.865 283.442 270.911C281.325 274.828 277.302 277.571 274 280.425C268.95 284.79 263.889 289.451 259.17 294.17C247.589 305.75 238.291 319.203 227 331M912 172C912.13 186.594 920.755 203.525 927.873 216C930.591 220.765 933.554 225.539 936.746 230C938.248 232.099 940.638 234.361 941.102 237C941.596 239.814 939.417 243.169 939 246C941.421 245.621 944.686 243.161 947 243.611C949.154 244.03 950.373 246.27 952.15 247.343C953.187 247.969 954.976 248.699 955.825 247.338C956.942 245.547 954.889 243.254 953.847 241.999C950.703 238.21 947.087 234.866 944.004 231C931.92 215.845 922.393 197.986 918 179C935.001 188.049 951.549 201.074 959.688 219C962.786 225.823 963.994 232.562 964 240C964.004 244.368 963.297 248.439 968 250C973.101 222.526 956.653 198.833 935 183.59C928.167 178.78 920.353 173.443 912 172z"/>
<path style="fill:#fdfdfe; stroke:none;" d="M290 267C295.7 263.721 300.905 259.35 305.999 255.195C308.066 253.51 310.763 251.664 311.593 248.985C312.393 246.405 310.804 243.407 310 241C305.922 242.726 302.678 245.57 299 248L298 247C303.617 238.02 311.744 230.847 317.645 222C326.452 208.796 332.114 194.015 337 179C329.959 181.032 323.722 185.531 318 190.015C304.608 200.508 292.805 214.614 290.3 232C289.561 237.127 289.245 243.912 290.299 249C290.797 251.408 292.304 253.53 292.517 256C292.827 259.599 290.804 263.526 290 267M307 260C319.157 257.743 331.761 258.989 344 256.69C363.991 252.934 384.329 239.568 396 223C369.212 223 347.04 230.856 325 245.975C318.751 250.262 311.812 254.05 307 260M859 223C862.207 229.876 869.1 235.362 875 239.985C895.947 256.398 921.172 259.467 947 260C942.254 254.17 935.146 249.996 929 245.721C907.763 230.95 884.851 223 859 223z"/>
<path style="fill:#141c34; stroke:none;" d="M438 446C445.701 451.089 452.644 457.301 460 462.87C463.97 465.876 469.147 468.699 471.725 473.09C481.245 489.305 476.971 508.766 487.468 524.981C489.562 528.216 492.722 529.554 495.215 532.299C500.222 537.81 503.403 544.584 509.039 549.711C521.704 561.231 537.11 566.069 553 570.637C557.124 571.822 560.784 573.999 565 575C561.472 579.077 558.245 583.381 555.45 588C553.535 591.164 552 594.796 548.815 596.914C542.698 600.983 533.888 603.134 527 605.681C506.587 613.23 482.589 618.583 465 631.9C452.241 641.56 443.545 656.103 434.424 669C430.879 674.013 427.264 682.872 421.816 685.972C417.289 688.548 409.06 687 404 687C387.101 687 364.662 684.649 353.966 701.001C347.588 710.752 348.766 722.001 349.83 733C350.99 744.98 352.209 756.996 353.089 769C353.499 774.599 354.771 780.368 353.772 786C352.404 793.715 344.205 801.445 340.053 808C327.107 828.441 316.788 854.854 336 875L293 875C290.912 875 280.112 873.759 280.921 877.83C281.565 881.069 288.742 880 291 880L324 880C329.88 880 336.172 879.372 342 880.21C347.1 880.943 351.947 883.395 357 884.489C364.121 886.031 371.749 886.414 379 886.911C386.994 887.458 395.02 886.513 403 886.714C408.74 886.858 414.194 888.519 420 887.816C425.754 887.118 431.208 883.512 437 883.394C442.942 883.272 448.858 885.983 455 886C448.929 894.722 441.426 902.663 434.801 911C432.945 913.335 427.878 918.196 430.661 921.397C432.14 923.097 434.968 923.007 437 922.906C442.039 922.655 446.921 922 452 922C473.376 922 494.653 919 516 919C535.89 919 556.081 916.427 576 918.058C583.091 918.638 588.458 923.798 596 923.985C601.383 924.119 606.807 924.182 611.996 922.556C617.206 920.925 620.279 918.04 626 918.001C674.45 917.67 722.58 922 771 922C770.355 916.199 766.745 912.432 763.2 908C756.663 899.828 749.604 892.116 743 884L777 884C784.441 884 791.503 883.918 795.914 891.104C799.168 896.404 798.814 905.562 795.725 910.871C794.526 912.932 792.299 914.173 791.194 916.258C789.934 918.635 790.623 921.287 793.149 922.397C797.278 924.21 802.74 922.381 807 922.089C815.396 921.515 824.622 921.372 833 922.17C865.23 925.237 898.604 923 931 923L962 923C967.145 923 973.029 923.757 978 922.196C992.572 917.62 992.716 890.347 982.892 881.225C977.163 875.904 968.725 878.061 966.533 869C965.568 865.008 966.031 860.537 968.648 857.259C970.161 855.364 972.447 854.202 973.397 851.871C975.239 847.353 973.203 840.421 968.895 838.028C966.045 836.445 962.133 837 959 837L939 837L864 837C863.996 830.296 862.083 823.638 862.259 817C862.911 792.519 866.839 767.389 869.17 743C870.612 727.91 874.916 709.61 863.671 697.093C855.785 688.315 844.05 687 833 687C827.931 687 818.446 688.847 814.699 684.682C810.356 679.854 808.461 670.899 805.769 665C797.42 646.698 788.914 626.376 771 615.464C752.364 604.112 728.891 600.597 708 595.373C700.264 593.439 689.892 592.232 683.039 588.066C677.435 584.658 674.612 577.709 669.829 573.329C666.676 570.44 660.227 569.175 658.067 565.582C655.902 561.98 658.735 555.457 662.133 553.649C666.023 551.58 670.866 551.067 675 549.564C686.557 545.362 694.385 539.051 697.964 527C703.745 507.534 704.585 484.089 697.189 465C693.516 455.518 684.907 446.943 682.882 437C681.295 429.211 686.779 419.981 686.946 412C687.429 388.877 671.346 366.112 649 360C652.104 355.941 656.207 352.999 659.98 349.575C661.743 347.975 664.339 345.875 663.94 343.173C663.577 340.717 660.723 338.988 658.985 337.551C654.623 333.945 650.375 330.202 646 326.614C629.161 312.805 612.739 298.518 596 284.586C591.314 280.686 586.791 276.542 582 272.774C579.492 270.801 577.203 269.053 574 270.573C569.271 272.817 564.996 277.424 561 280.753L536 301.754C505.935 326.906 476.874 353.217 447 378.571C443.292 381.718 438.774 383.414 435.104 386.429C432.219 388.799 430.407 392.261 427.896 394.996C424.25 398.967 419.939 402.305 416 405.975C412.837 408.922 406.48 412.57 405.346 416.986C404.208 421.414 412.154 425.741 415 427.997C424.457 435.495 436.139 440.92 432.683 455C431.676 459.104 427.979 461.755 427.229 466C426.503 470.114 428.485 473.958 428.031 478C427.347 484.087 424.525 489.781 424.09 496C423.131 509.671 424.373 523.354 422.576 537C421.647 544.055 420.75 551 419.4 558C418.89 560.647 417.851 564.057 420.357 566.012C427.748 571.78 438.064 570.018 446 567.529C448.507 566.743 452.28 566.834 453.212 563.772C454.147 560.702 451.984 556.074 451.424 553C450.045 545.415 448.901 537.674 448.17 530C447.097 518.735 448.955 507.259 447.829 496C447.185 489.552 444.061 483.326 443.563 477C443.295 473.595 445.12 470.437 444.746 467C444.375 463.585 442.185 461.069 440.919 458C439.407 454.333 438.887 449.879 438 446z"/>
<path style="fill:#fdfdfe; stroke:none;" d="M430 401C422.331 404.575 416.893 412.149 410 417C415.646 424.377 425.692 431.861 434 436L435 420L437 420C437.044 425.265 436.406 435.148 439.028 439.711C441.29 443.648 446.471 446.63 450 449.349C453.254 451.856 457.503 456.295 461.981 454.613C468.029 452.34 466.137 447.01 466.015 442C465.742 430.847 467.329 421.253 471.862 411C483.418 384.862 506.869 364.729 531 350.452C549.549 339.478 573.999 329.345 596 333.468C607.39 335.602 618.327 343.388 628 349.425C631.835 351.818 637.237 357.567 642 357.407C647.985 357.207 654.613 348.572 659 345C653.819 337.796 645.7 332.626 639 326.87C625.116 314.943 611.07 303.145 597 291.435C592.303 287.526 587.719 283.473 583 279.595C581.045 277.989 578.74 275.683 576 275.831C572.275 276.032 568.661 280.178 566 282.424C558.669 288.615 551.265 294.733 544 301C516.384 324.822 488.535 348.367 461 372.282C456.316 376.35 449.121 380.831 446.028 386.286C443.344 391.016 445.431 396.188 441.467 400.826C437.86 405.045 432.069 407.544 430 401z"/>
<path style="fill:#141c34; stroke:none;" d="M271 309C281.553 308.424 290.953 298.286 301 294.698C316.012 289.337 329.579 290.99 345 291C330.4 303.745 313.912 314.925 294 316.036C288.112 316.364 283.63 317.376 278 315C281.843 313.557 285.498 312.159 289 310L289 308C281.688 306.076 276.868 313.903 270 316C273.845 323.041 285.061 321.156 292 320.985C316.07 320.394 336.585 306.413 353 290C347.825 284.711 337.913 286 331 286C314.443 286 299.565 288.524 285 296.851C279.536 299.975 273.778 303.167 271 309M976 315C960.228 321.655 938.169 312.311 925 303.481C919.55 299.827 914.827 295.007 909 292C923.56 287.071 943.206 290.098 957 296.312C964.594 299.732 974.592 310.026 983 308C970.111 291.158 944.919 286 925 286C919.257 286 913.699 286.046 908.005 286.85C906.048 287.126 902.52 287.275 902.921 290.148C903.728 295.921 913.692 301.687 918 304.845C935.265 317.5 955.692 323.213 977 320.424C979.597 320.085 982.264 319.775 984.83 320.495C987.886 321.351 990.629 323.672 993.682 321.242C996.424 319.06 996.015 314.679 992.852 313.085C988.751 311.018 983.816 314.747 979 312.474C975.948 311.032 969.89 305.424 966.362 307.167C964.349 308.162 964.891 310.458 966.453 311.502C969.062 313.244 973.031 313.998 976 315M160 403C163.98 398.609 161.1 394.758 159.036 390C155.995 382.989 153.516 375.575 152.428 368C149.924 350.561 154.357 332.037 161.012 316C163.522 309.951 166.316 302.634 171 298C171.903 308.343 176.262 318.723 178.196 329C181.075 344.3 179.649 358.874 176.6 374C175.016 381.858 172.92 390.568 168 397C167.99 393.545 167.802 390.368 167 387C158.447 389.703 165.07 398.069 168 403C175.945 399.117 177.204 389.78 179.421 382C185.598 360.331 185.368 337.867 180.349 316C178.952 309.916 177.119 303.925 175.164 298C174.467 295.89 173.818 292.286 171.613 291.176C168.714 289.716 166.554 294.092 165.428 296.005C161.35 302.934 157.914 310.487 155.064 318C144.255 346.496 144.328 376.144 160 403M1083 403L1087 402C1082.07 384.746 1075.13 369.325 1074.09 351C1073.1 333.378 1078.61 314.567 1084 298C1094.14 315.371 1103.81 337.385 1102.9 358C1102.24 372.816 1096.27 386.415 1091 400L1095 401C1109.48 373.359 1109.81 344.753 1098.4 316C1095.64 309.036 1092.42 302.505 1088.69 296.005C1087.64 294.171 1085.85 290.482 1083.18 290.921C1080.75 291.322 1079.98 295.106 1079.33 297.001C1077.1 303.561 1075.31 310.279 1073.63 317C1066.56 345.252 1069.4 377.039 1083 403M261.147 313.137C255.787 315.622 259.437 324.46 264.938 321.914C270.758 319.22 266.551 310.63 261.147 313.137z"/>
<path style="fill:#fdfdfe; stroke:none;" d="M478 476C479.984 472.295 480.669 467.941 482.204 464C485.863 454.601 490.124 445.409 495.748 437C524.773 393.605 577.424 357 631 357C627.119 352.995 621.832 350.193 617 347.427C611.518 344.29 605.161 340.027 599 338.532C585.493 335.254 571.893 338.036 559 342.333C532.978 351.007 508.094 367.62 490.805 389C483.75 397.724 477.425 407.346 473.695 418C466.952 437.264 471.904 457.266 478 476M487 514C488.8 509.708 487.132 505.485 487.376 501C487.708 494.887 489.645 488.923 491 483L493 483L494 484C492.215 490.337 490.749 496.363 491.039 503C492.842 544.157 534.588 564.597 570 572C569.917 561.924 566.727 550.878 562 542C557.659 543.641 553.779 545.381 549 544.917C531.376 543.203 507.805 523.411 517.556 504C520.129 498.876 525.291 494.413 531 493.25C534.983 492.439 540.923 496.027 542 491C546.877 494.726 550.311 499.293 556 502C554.536 493.495 550.698 485.765 550 477C544.934 481.626 541.506 487.789 536 492C545.019 473.583 561.541 455.538 562 434C548.41 438.472 548.422 455.534 536 462C539.627 456.537 542.825 450.642 546.194 445C547.917 442.116 550.321 438.931 546 438C550.161 432.559 556.135 428.923 560.83 423.961C570.171 414.09 577.9 402.97 587 393C583.108 409.38 568.062 417.135 559 430C576.654 424.246 593.172 413.86 604.497 399C609.357 392.624 611.212 383.291 617 378C616.764 389.071 610.25 396.403 606 406C617.315 400.363 625.886 389.48 628.076 377C628.855 372.563 630.021 364.934 624.775 362.603C620.386 360.653 613.503 362.246 609 363.095C595.018 365.731 581.616 371.343 569 377.756C539.611 392.696 512.351 416.258 495.85 445C490.802 453.794 485.357 463.921 483.468 474C480.911 487.641 482.747 500.926 487 514M631 362C631.714 365.123 632.092 369.885 634.013 372.49C635.766 374.866 639.505 375.551 642 376.901C646.618 379.401 651.137 382.541 655 386.093C667.106 397.226 675.651 410.819 679 427C687.153 415.134 680.758 391.967 668 386C671.195 392.074 675.962 398.917 675 406C671.395 400.331 669.97 393.706 666.521 388C663.577 383.131 659.121 379.796 655 376C662.612 377.919 668.568 382.764 675 387C669.224 369.87 647.5 362.011 631 362M633 378C627.356 392.255 619.018 404.226 605 411.542C601.787 413.218 598.11 412.871 595 414.6C589.716 417.536 585.271 422.056 580 425.138C576.54 427.161 571.304 428.646 568.603 431.648C565.429 435.177 564.961 444.36 563.308 449C560.759 456.155 555.27 463.507 554.217 471C552.49 483.282 559.192 495.813 563 507C555.882 508.068 551.905 503.497 546 500.415C541.774 498.21 535.698 497.479 531 498.214C520.839 499.803 518.194 511.503 521.108 520C526.293 535.121 555.073 550.923 565 532L567 532C569.288 536.051 573.101 538.435 576 542C572.77 541.051 569.978 539.56 567 538C566.059 542.873 568.689 546.482 570.302 551C572.49 557.129 573.782 563.575 574.728 570C575.936 578.198 577.337 586.696 576.961 595C576.765 599.326 574.773 603.675 575.569 608C578.223 622.421 592.204 635.942 601.91 645.961C607.308 651.534 612.261 659.828 620 662C629.361 648.31 640.552 636.451 648.988 622C652.289 616.346 656.315 609.542 657.428 603C658.481 596.813 654.406 589.19 653.439 583C651.997 573.769 653.273 564.209 654 555C639.403 555.627 625.51 559.078 611 555C617.163 551.711 624.242 553.473 631 552.83C645.719 551.429 661.133 550.147 675 544.547C679.907 542.565 685.181 540.121 688.606 535.957C692.854 530.793 694.438 523.39 695.789 517C699.55 499.211 699.017 479.8 691.561 463C687.096 452.938 680.116 444.748 677 434C675.9 435.878 674.992 438.753 672.772 439.593C666.878 441.824 662.766 432.229 662 428L656 437C656.056 430.759 658.323 422.305 666.001 421.643C668.713 421.409 671.513 423.119 674 424C671.599 410.056 662.456 406.187 650 412C649.252 403.166 658.635 403.516 665 404C657.637 392.177 646.636 381.928 633 378z"/>
<path style="fill:#141c34; stroke:none;" d="M1120 499C1119.67 483.18 1114.98 468.12 1116.09 452C1117.51 431.378 1127.48 413.254 1136 395C1148.29 416.608 1148.79 448.191 1140.19 471C1137.61 477.824 1133.94 484.018 1129.79 490C1126.87 494.219 1123.13 497.635 1124 503C1130.64 499.84 1134.89 492.179 1138.55 486C1150.27 466.168 1151.93 442.294 1148.41 420C1147.01 411.129 1144.56 402.49 1141.67 394C1140.91 391.774 1139.6 386.236 1136.16 387.346C1134.21 387.975 1133.12 390.391 1132.15 392.005C1129.27 396.833 1126.67 401.847 1124.42 407C1115.09 428.386 1109.49 449.556 1111.83 473C1112.5 479.727 1111.89 497.592 1120 499z"/>
<path style="fill:#fdfdfe; stroke:none;" d="M440 390C436.917 393.119 434.198 395.728 433 400C438.149 399.198 442.074 395.383 440 390z"/>
<path style="fill:#141c34; stroke:none;" d="M176 396C177.889 397.776 179.657 398.879 182 400C180.927 396.464 179.675 395.46 176 396M435 409L435 416C436.759 413.692 436.917 411.908 437 409L435 409M183 477C207.248 475.019 229.247 456.215 241.139 436C244.367 430.513 247.703 424.903 250.123 419C250.874 417.167 252.465 413.663 250.356 412.118C248.451 410.721 244.999 412.122 243 412.63C236.887 414.182 230.843 416.235 225 418.604C209.092 425.054 195.542 435.971 185.721 450C182.75 454.246 177.898 460.544 177.539 465.911C177.282 469.741 181.768 473.377 183 477M1071 477C1072.19 473.52 1076.12 470.467 1076.47 466.911C1076.98 461.801 1071.65 455.011 1069 451C1059.43 436.563 1045.87 425.968 1030 419.15C1023.85 416.507 1017.5 414.279 1011 412.63C1009.01 412.125 1005.54 410.715 1003.65 412.118C1001.56 413.669 1003.3 417.185 1004.02 419C1006.38 424.972 1009.67 430.528 1013 436C1024.96 455.644 1046.66 475.939 1071 477M580 441C584.712 438.151 587.823 432.847 592 429.185C597.026 424.78 602.641 422.678 608.995 420.995C610.651 420.557 615.537 419.306 613.824 416.549C611.7 413.129 603.76 416.097 601 417.09C590.647 420.817 580.599 429.461 580 441z"/>
<path style="fill:#fdfdfe; stroke:none;" d="M182 468C183.474 466.968 189.242 461.085 191.079 462.921C192.915 464.758 187.032 470.526 186 472C213.94 469.2 236.007 441.002 246 417C225.083 419.819 203.664 432.993 191.428 450C187.473 455.498 183.208 461.229 182 468M1008 417C1018.01 441.038 1040.03 469.196 1068 472C1066.88 470.467 1061.22 465.65 1062.92 463.596C1064.7 461.442 1070.26 466.111 1072 467C1070.39 459.956 1065.66 453.57 1061.19 448C1048.96 432.732 1028.03 418.749 1008 417z"/>
<path style="fill:#141c34; stroke:none;" d="M593 460C596.374 457.882 596.796 454.4 598.649 451C600.314 447.944 602.618 445.498 605 443C605.101 447.179 605.707 450.815 609.109 453.682C614.873 458.542 620.507 454.515 621 448L624 449C620.809 437.165 609.574 432.317 600.105 441.213C594.807 446.19 593.059 453.002 593 460M530 438C519.961 452.759 505.4 469.232 505 488C508.306 483.58 509.17 477.763 512.068 473C518.848 461.858 528.934 450.903 532 438L530 438M661 450L660 451C662.68 456.122 669.154 455.547 671.806 460.225C674.145 464.351 670.388 470.587 670 475C676.069 472.008 680.628 462.112 675.427 456.278C672.162 452.614 665.611 451.093 661 450z"/>
<path style="fill:#fdfdfe; stroke:none;" d="M466 454C465.513 456.056 465.048 457.144 464 459C465.836 461.447 467.237 462.701 470 464C468.987 460.406 468.383 456.907 466 454M433.433 463.047C428.308 466.301 432.881 477.208 438.397 472.968C442.324 469.949 438.967 459.533 433.433 463.047z"/>
<path style="fill:#141c34; stroke:none;" d="M171.229 474.086C165.617 476.946 170.226 486.04 175.852 482.953C181.258 479.986 176.346 471.479 171.229 474.086M1079.11 473.801C1073.14 475.801 1075.92 485.227 1081.95 483.338C1088.13 481.399 1085.29 471.729 1079.11 473.801M129 490C128.99 486.545 128.802 483.368 128 480C121.498 481.999 125.187 486.88 129 490z"/>
<path style="fill:#fdfdfe; stroke:none;" d="M432 480C426.87 496.043 428.686 512.432 427.961 529C427.456 540.532 425.19 551.705 423 563L428 563C429.876 553.044 431 543.13 431 533C431 523.866 429.875 513.924 432 505C433.862 511.298 433 518.463 433 525C433 538.702 432.001 552.357 432 566L440 566C439.972 555.666 438.491 545.315 438.039 535C437.252 517.02 437.771 498.958 437 481L435 481L433 493C431.718 488.621 433.476 484.117 432 480M441 488C441.717 504.706 440.307 521.268 441.039 538C441.406 546.381 443.341 554.65 444 563L449 563C445.999 548.454 444 534.872 444 520C444 513.585 443.321 507.372 443.039 501C442.838 496.447 443.192 492.124 441 488z"/>
<path style="fill:#141c34; stroke:none;" d="M651 505C659.163 504.977 667.495 503.444 675 500.123C679.361 498.194 682.715 496.019 682 491C675.028 494.255 668.582 498.258 661 500.1C656.741 501.135 652.56 500.3 651 505M155 581C159.726 579.469 159.836 575.408 160.884 571C162.594 563.81 165.024 556.655 168.259 550C177.528 530.933 193.537 515.279 212 505C207.805 537.48 192.156 567.391 163 584L164 588C190.057 579.697 206.137 549.518 212.848 525C215.02 517.064 218.218 506.066 216 498C208.298 500.223 201.395 505.438 195 510.156C173.338 526.137 155.23 553.234 155 581M1092 587C1089.46 582.037 1084.29 579.693 1080 576.332C1073.8 571.473 1068.17 566.189 1063.29 560C1050.18 543.397 1046.79 524.866 1042 505C1060.05 515.052 1076.12 530.451 1085.4 549C1088.86 555.933 1091.56 563.456 1093.35 571C1094.37 575.329 1094.35 579.471 1099 581C1098.93 554.139 1082.23 528.96 1062 512.612C1056.67 508.306 1050.94 504.255 1045 500.827C1043.24 499.81 1039.85 497.537 1038.04 499.658C1036.65 501.288 1037.48 504.131 1037.73 506C1038.56 512.09 1039.63 518.038 1041.13 524C1046.22 544.271 1055.94 562.952 1072 576.7C1077.13 581.088 1084.92 588.324 1092 587M525 514C526.612 512.669 528.205 510.946 530.094 510.01C534.923 507.619 541.412 510.77 543.977 515.174C545.395 517.609 545.168 520.481 547.318 522.566C549.462 524.647 552.196 524.846 555 525C553.935 521.877 551.534 521.214 549.764 518.61C546.507 513.82 547.118 509.753 541 506.688C533.889 503.126 525.637 505.574 525 514M670 511C674.317 510.403 677.193 509.404 680 506C676.163 506.682 672.356 507.787 670 511M1102 567L1101 571L1110 572C1107.65 569.189 1105.57 567.849 1102 567z"/>
<path style="fill:#fdfdfe; stroke:none;" d="M657 572C657.836 578.615 658.714 585.338 659 592L664 589C661.469 609.025 652.683 625.921 640.625 642C635 649.501 625.365 657.33 621.858 666C620.28 669.903 621 674.876 621 679C621 688.722 622 698.296 622 708C627.671 704.806 631.713 699.087 635.651 694C644.491 682.58 654.6 668.903 659 655C660.128 660.772 656.803 667.01 653.996 672C647.841 682.941 640.968 693.51 632.711 703C629.782 706.366 623.166 715.723 618 714.248C612.786 712.76 607.641 705.819 604.089 702C592.227 689.244 580.718 673.132 574 657C569.657 660.132 566.928 664.594 562.957 668.146C561.524 669.428 559.448 671.732 557.279 671.369C552.888 670.634 552.23 658.395 551.551 655C548.187 638.177 544.95 619.966 549 603C538.475 604.576 527.986 610.295 518 613.947C501.268 620.066 480.98 624.799 467 636.329C450.463 649.967 439.084 670.374 427.333 688C408.37 716.444 389.373 744.855 369.975 773C357.594 790.962 342.414 808.629 334.201 829C329.59 840.436 327.651 853.68 333.905 865C338.782 873.828 347.633 877.325 357 879.424C371.259 882.619 384.828 882.522 399.17 881.919C403.683 881.729 408.398 882.997 413 883C409.938 878.636 405.97 875.037 403.931 870C398.683 857.039 403.148 842.006 412.174 832.004C416.144 827.604 421.396 824.67 425 820C411.222 817.313 400.62 827.999 392 837C396.229 825.845 406.822 819.587 418 817C407.424 809.005 388.956 805.782 376 807.174C371.572 807.649 367.398 809.353 363 810C365.87 804.805 371.491 803.847 377 802.921C389.428 800.831 401.56 805.587 413 810C407.513 798.233 395.584 797.574 387 790C395.954 791.737 404.188 794.706 410.91 801.174C416.121 806.188 419.438 815.053 428 815.073C433.279 815.086 436.943 808.392 440.17 805.044C445.017 800.013 450.285 798.42 457 800C452.922 787.203 441.625 775.241 434.345 764C431.787 760.05 426.703 751.968 427.816 747.015C430.194 736.44 440.012 744.608 443.908 748.455C454.332 758.749 460.108 774.347 469 786C475.842 780.466 485.163 770.166 488.606 762C491.662 754.75 491.424 745.706 492.17 738C494.257 716.436 492.292 694.708 485.656 674C482.946 665.545 478.001 658.244 475 650C482.493 655.783 486.99 666.207 489.997 675C497.064 695.668 498.905 717.37 496.83 739C496.023 747.413 492.701 756.591 493.325 765C494.051 774.786 496.678 784.277 497.845 794C498.566 800.01 498.451 808.324 500.894 813.867C503.426 819.613 511.702 818.929 513.562 826.001C514.436 829.323 513.211 832.669 513.129 836C513.063 838.667 513.976 841.346 513.612 844C513.127 847.531 510.55 850.278 512.592 853.852C515.262 858.525 521.18 856.501 524.576 853.867C538.199 843.301 552.261 834.509 568 827.309C585.332 819.379 605.095 826.77 623 829.753C627.64 830.526 633.204 832.193 637.911 831.762C642.078 831.381 644.922 827.19 649 826.059C653.924 824.693 659.081 825.403 664 824.073C668.197 822.937 671.877 820.55 676 819.217C681.542 817.425 687.256 816.973 693 816.286C704.054 814.963 715.007 813.754 726 811.92C729.447 811.345 735.648 811.447 737.987 808.436C741.176 804.331 740.548 795.005 741.155 790C742.015 782.91 744.494 775.161 743.801 768C743.361 763.46 741.133 759.286 739.745 755C737.72 748.745 736.429 742.44 735.197 736C733.548 727.382 731.049 711.617 738 705C738 718.209 738.62 730.984 741.095 744C742.066 749.108 744.239 753.848 745 759L747 759C747.034 746.751 751.028 728.877 760 720C755.423 734.065 748.053 750.898 749.224 766C750.151 777.962 758.295 790.613 762 802C771.751 793.02 781.495 783.843 795 781.262C800.173 780.273 805.032 778.948 809 783C793.454 784.965 777.536 789.471 768 803C785.74 799.34 805.088 797.413 820 810C805.551 807.514 794.136 802.19 779 805C786.592 809.133 796.845 810.498 801 819C791.642 815.121 783.437 809.295 773 808.174C761.347 806.922 749.225 811.456 738 814.116C724.81 817.241 711.412 818.793 698 820.576C688.824 821.795 676.988 820.714 669.279 826.969C664.096 831.174 663.094 844.754 664.148 850.941C664.86 855.119 668.53 854.927 672 855.424C680.476 856.639 688.757 858.368 697 860.71C706.748 863.48 718.926 864.934 727.961 869.43C732.312 871.595 734.353 876.675 739.001 878.397C743.623 880.109 750.131 879 755 879C767.258 879 783.599 881.831 795 877C793.455 872.989 792.128 869.348 792.015 865C791.916 861.23 791.372 856.489 793.179 853.039C796.539 846.625 809.07 839.11 816 837.418C820.692 836.273 826.199 837 831 837L860 837C859.146 817.114 851.901 797.702 845.667 779C834.493 745.478 821.276 712.437 807.281 680C798.679 660.063 790.637 636.393 773 622.518C763.378 614.948 751.571 611.792 740 608.576C721.727 603.496 703.261 599.144 685 594C687.568 613.068 688.805 630.757 686.13 650C685.635 653.565 685.526 666.576 680.852 667.23C677.178 667.744 672.493 661.887 670 659.718C662.145 652.887 654.228 644.016 643 646C647.441 640.556 652.346 641.54 658 644.93C665.928 649.683 671.714 658.058 680 662C681.781 647.905 683 634.219 683 620C683 606.704 682.452 595.733 673.739 585C669.043 579.215 664.677 573.391 657 572M570 577C542.327 600.615 553.872 635.348 558 666C568.272 660.118 582.319 632.853 595 649C592.418 648.621 589.609 647.497 587 647.603C585.586 647.66 584.224 648.102 583.005 648.819C573.574 654.358 579.219 661.831 583.684 669C590.443 679.851 596.912 689.868 606.001 699C609.731 702.748 613.173 706.749 618 709C617.973 699.337 617 689.713 617 680C617 675.52 617.899 669.963 615.397 666C612.072 660.734 606.379 656.386 602 652C591.096 641.078 580.696 628.882 573.759 615C570.004 607.484 567.007 599.394 569 591C569.881 593.021 570.496 594.854 571 597C573.309 591.498 572.418 582.386 570 577z"/>
<path style="fill:#141c34; stroke:none;" d="M152.149 588.032C146.037 591.539 151.999 600.318 157.852 596.968C164.111 593.385 158.06 584.641 152.149 588.032M1096.23 588.029C1090.17 591.705 1095.95 600.14 1101.94 596.968C1109.29 593.077 1102.56 584.184 1096.23 588.029M171 670C169.128 673.271 167.797 676.446 165 679C165.639 648.032 179.051 616.279 205 598C205 620.508 202.273 642.29 190.547 662C187.008 667.949 182.854 673.086 178 678C174.551 681.492 171.112 684.024 173 689C195.908 674.67 207.144 643.8 208.91 618C209.384 611.08 209.126 603.936 208.995 597.001C208.961 595.163 209.226 591.323 206.682 590.921C204.145 590.521 201.695 593.392 200 594.85C195.206 598.972 190.846 603.197 186.729 608C173.549 623.377 164.278 641.736 161.845 662C161.201 667.364 159.11 676.613 161.603 681.682C162.682 683.876 165.575 684.282 167.675 683.392C172.737 681.248 176.435 673.083 171 670M1084 687C1082.14 683.332 1079.02 681.027 1076.29 677.985C1071.23 672.374 1066.33 666.503 1062.45 660C1051.44 641.508 1049 619.078 1049 598C1075 616.101 1089 647.897 1089 679C1088.03 677.907 1082.3 667.962 1080.83 673.337C1079.57 677.927 1086.61 687.144 1091.4 682.396C1095.04 678.777 1093.08 667.591 1092.42 663C1089.58 643.179 1082.24 625.318 1069.13 610C1064.16 604.192 1059.02 598.53 1053 593.774C1051.37 592.488 1048.08 589.429 1046.03 591.662C1043.06 594.893 1044.99 605.831 1045 610C1045.03 631.247 1050.8 653.836 1063.67 671C1068.17 677.005 1075.5 688.871 1084 687M1116 718L1120 719C1123.94 705.022 1127.27 691.078 1133.81 678C1144.9 655.831 1164.46 636.991 1186 625C1181.15 650.758 1174.89 675.942 1156.83 696C1150 703.584 1141.79 709.844 1133 714.988C1128.25 717.769 1121.99 719.02 1121 725C1129.32 724.148 1137.23 718.597 1144 713.971C1166.74 698.431 1179.69 674.126 1186.37 648C1188.62 639.207 1192.56 626.893 1190 618C1181.25 620.574 1173.22 626.952 1166 632.375C1137.76 653.599 1122.36 683.872 1116 718M772 630C753.47 642.656 739.191 668.203 739 691C743.727 686.114 744.678 678.233 747.065 672C750.481 663.076 755.272 653.709 760.924 646C764.141 641.611 772.123 635.565 772 630M668 661L668 664C669.195 662.777 669.316 662.58 670 661L668 661M665 669C660.016 675.066 656.596 682.414 652.305 689C646.571 697.8 639.975 706.051 633.13 714C630.211 717.39 624.155 726.988 619 726.373C614.062 725.783 608.763 718.44 605.714 714.999C599.589 708.087 593.674 701.409 588.127 694C584.455 689.097 581.334 683.198 576 680C576.648 686.321 580.135 690.89 583.66 696C590.193 705.47 597.728 714.952 606.004 722.961C609.025 725.884 615.374 733.549 620 732.94C625.106 732.267 630.446 724.622 633.575 721C643.506 709.504 653.098 697.488 660.219 684C662.501 679.679 666.708 673.935 665 669M190 788C194.218 784.958 192.665 780.525 191.65 776C190.182 769.452 188.709 761.722 189.184 755C190.393 737.894 195.333 721.604 204.425 707C207.742 701.672 211.107 695.984 216 692C216.422 701.674 219.244 711.267 219.91 721C221.124 738.721 217.103 756.38 208.691 772C206.277 776.482 194.322 789.416 202 792C208.091 782.129 214.442 772.949 218.575 762C228.116 736.722 225.18 709.49 218 684C209.355 686.447 203.379 698.608 199.15 706C185.594 729.697 178.778 761.917 190 788M1038 692C1042.35 695.54 1045.25 700.352 1048.33 705C1058.06 719.661 1063.91 736.396 1064.91 754C1065.32 761.261 1063.58 768.908 1062.26 776C1061.39 780.686 1060.39 784.451 1064 788C1068.21 779.614 1069 769.258 1069 760C1069 741.161 1065.41 724.622 1056.14 708C1052.44 701.364 1048.04 695.015 1043.37 689.019C1042.03 687.301 1039.34 683.252 1036.69 685.086C1034.97 686.276 1034.6 689.14 1034.13 691.001C1032.89 695.924 1031.85 700.975 1031.13 706C1028.04 727.471 1029.14 748.976 1038.31 769C1041.04 774.972 1044.29 780.578 1048 785.995C1049.15 787.681 1051.18 791.561 1053.76 791.079C1056.25 790.612 1054.82 787.287 1054.13 785.995C1051.55 781.197 1048.11 776.779 1045.43 772C1036.69 756.438 1032.87 737.755 1034.09 720C1034.73 710.58 1037.6 701.389 1038 692M1088.15 690.086C1082.25 692.992 1086.65 703.283 1092.66 699.802C1098.02 696.692 1093.75 687.329 1088.15 690.086M161.152 691.032C155.918 694.071 160.691 702.36 165.891 699.914C172.531 696.789 167.328 687.447 161.152 691.032z"/>
<path style="fill:#fdfdfe; stroke:none;" d="M817 691C819.112 699.891 823.605 708.514 827 717C834.945 736.861 842.899 756.696 849.667 777C852.696 786.087 856.598 795.505 858 805C861.123 797.761 860.374 788.725 861.286 781C863.282 764.087 864.721 746.983 866.086 730C866.971 718.983 868.167 708.864 859.815 700.093C849.029 688.768 831.161 691 817 691M359 781C365.127 774.603 369.76 766.36 374.667 759C382.035 747.948 389.63 737.054 397 726C404.211 715.184 414.376 704.198 419 692L390 692C380.564 692 371.003 692.156 363.09 698.055C357.303 702.369 353.67 709.819 353.213 717C352.599 726.641 354.869 737.381 355.831 747C356.961 758.302 356.923 769.813 359 781z"/>
<path style="fill:#141c34; stroke:none;" d="M472 721C472.616 734.471 480.868 746.478 487 758C488.478 753.833 486.05 749.877 484.424 746C480.984 737.795 478.442 727.375 472 721z"/>
<path style="fill:#fdfdfe; stroke:none;" d="M432 751L437 750C435.435 744.897 431.539 745.7 432 751z"/>
<path style="fill:#141c34; stroke:none;" d="M78 747C79.8399 755.801 83.7527 763.999 87.7531 772C98.966 794.426 113.994 813.054 136 825.572C145.325 830.876 161.208 838.16 172 835C167.914 830.574 161.555 830.141 156 828.33C147.276 825.487 138.564 821.835 131 816.561C114.515 805.068 102.78 789.51 93.3086 772C89.7952 765.505 87.4564 758.49 84 752C111.289 758.313 136.078 774.784 152.87 797C158.323 804.214 163.036 811.979 167.216 820C169.447 824.28 170.491 828.802 176 828C173.572 819.573 168.619 811.378 163.947 804C150.275 782.412 131.601 765.288 108 755.15C99.5882 751.537 87.2775 745.015 78 747M1082 830C1088.23 818.313 1093.85 806.652 1101.9 796C1117.56 775.276 1143.87 756.497 1170 752C1157.95 777.45 1146.08 800.899 1122 817.254C1113.8 822.823 1104.53 826.883 1095 829.572C1089.77 831.046 1084.04 830.734 1083 837C1115.97 830.606 1141.4 813.714 1159.32 785C1164.75 776.29 1169.61 766.702 1173 757C1173.9 754.434 1177.73 747.245 1172.85 746.618C1166.99 745.866 1158.46 750.429 1153 752.345C1129.14 760.713 1108.31 777.313 1094.03 798C1089.39 804.713 1085.39 811.704 1081.75 819C1079.65 823.227 1077.05 827.194 1082 830z"/>
<path style="fill:#fdfdfe; stroke:none;" d="M480 812C477.439 805.242 472.653 799.018 468.667 793C462.73 784.033 456.968 774.952 451 766C448.675 762.513 443.735 751.364 438.16 754.238C431.842 757.494 442.08 768.62 444.333 772C451.115 782.173 457.369 795.285 466.184 803.787C469.959 807.427 475.398 809.579 480 812z"/>
<path style="fill:#141c34; stroke:none;" d="M1003 768C993.037 793.687 986.678 820.695 994.152 848C996.022 854.833 1000.05 873.295 1009 872C1005.54 862.504 1000.33 853.971 997.898 844C992.146 820.436 997.697 798.445 1005 776C1016.64 792.019 1025.37 813.929 1024.87 834C1024.55 846.914 1020.85 859.171 1016 871C1020.44 871.662 1021.93 868.928 1023.55 864.999C1026.16 858.645 1027.36 851.756 1028.41 845C1031.6 824.536 1026.37 802.914 1016.41 785C1013.15 779.139 1009.83 770.021 1003 768z"/>
<path style="fill:#fdfdfe; stroke:none;" d="M496 815C495.875 799.944 490.648 785.096 490 770C484.539 772.661 481.112 778.31 477.4 783C475.805 785.016 473.486 787.322 473.157 790C472.721 793.559 476.169 797.252 478 800C480.659 803.991 483.42 810.312 487.518 812.976C489.828 814.478 493.344 814.505 496 815M747 778C746.917 787.971 744.844 798.215 743 808C748.114 807.582 752.988 806.034 758 805C757.018 798.444 754.041 792.138 751.601 786C750.39 782.953 749.644 779.984 747 778M430 880L429 877C439.909 876.014 459.65 890.05 467 876C457.311 873.196 444.587 868.95 438 861C448.719 864.102 458.789 870.705 470 871.829C473.038 872.134 481.364 873.052 481.364 868.151C481.364 864.571 474.588 861.752 472 860.309C462.426 854.97 452.388 850.149 444 843C454.966 843.643 467.656 853.235 477 858.579C480.789 860.746 487.168 865.892 491.852 864.303C499.546 861.693 490.575 852.593 487.999 850C483.307 845.277 478.665 840.963 473 837.425C466.14 833.141 458.013 829.496 453 823C466.925 825.482 477.653 835.692 488 844.41C491.457 847.323 498.479 854.528 503.681 852.353C506.285 851.265 505.776 848.061 504.831 845.999C502.688 841.322 498.563 837.044 495.424 833C486.879 821.992 478.303 815.272 466 808.781C460.495 805.877 454.44 802.654 448.004 804.434C443.3 805.734 440.946 810.33 437.7 813.572C434.481 816.787 430.321 819.266 427.703 823.039C425.442 826.298 424.956 830.371 423.536 834C420.572 841.577 418.067 847.889 416.754 856C414.917 867.351 416.482 878.811 430 880z"/>
<path style="fill:#141c34; stroke:none;" d="M1093 823C1096.04 822 1096.49 821.137 1096 818C1093.82 819.539 1093.43 820.355 1093 823z"/>
<path style="fill:#fdfdfe; stroke:none;" d="M491 819C494.962 826.963 502.33 839.359 510 844C508.969 838.445 510.708 829.979 507.972 825.109C505.06 819.925 496.272 819.42 491 819M529 854C537.824 857.668 549.122 846.857 558 845C553.793 848.712 547.203 850.834 542 853C546.639 854.947 552.951 854.543 558 855.155C565.443 856.058 573.016 857.687 580 860.45C584.168 862.099 588.184 863.972 592 866.323C594.333 867.76 597.1 870.052 600 869.941C604.101 869.783 608.363 865.6 612 863.89C620.012 860.123 629.135 856.724 638 856C638 849.268 637.767 842.642 639 836C624.975 835.961 610.791 832.248 597 829.919C590.673 828.851 584.472 827.377 578 828.185C572.289 828.898 567.061 832.222 562 834.753C550.445 840.531 539.679 846.735 529 854M643 855L663 854C662.319 845.377 662.319 837.623 663 829C658.454 829.575 651.15 828.814 647.225 831.179C640.193 835.417 642.163 848.375 643 855M413 874C410.897 857.45 414.664 845.238 421 830C410.444 834.936 404.991 849.827 406.174 861C406.731 866.27 408.134 871.455 413 874M802 851L906 851L938 851C943.94 851 950.275 851.692 956 850C951.785 848.231 946.536 849 942 849C932.921 849 924.009 849.139 915 848C925.117 845.003 936.544 846 947 846C952.803 846 958.067 846.816 961 841L844 841C830.596 841 810.556 837.671 802 851M960 850L970 850C969.713 847.132 968.991 844.706 968 842C963.825 843.284 962.076 846.289 960 850z"/>
<path style="fill:#141c34; stroke:none;" d="M387 846C382.666 856.074 382.625 873.405 394 879C393.169 872.649 389.082 867.437 388.099 861C387.359 856.159 389.432 850.207 387 846M240 855C238.988 859.004 239.915 862.89 240 867C244.584 864.062 244.851 857.684 240 855z"/>
<path style="fill:#fdfdfe; stroke:none;" d="M507 855C504.521 856.337 502.81 856.816 500 857C503.718 862.944 508.34 868.42 515 871C514.101 865 511.653 858.989 507 855M802 877C799.703 868.409 798.55 863.468 802 855C792.016 855.796 795.417 873.457 802 877M964 877C961.717 868.632 960.742 863.536 963 855L840 855L818 855C814.825 855 810.341 854.221 807.39 855.603C804.312 857.046 802.389 861.807 802.223 865C802.003 869.234 803.818 874.735 808.044 876.397C811.012 877.563 814.876 877 818 877L839 877L964 877z"/>
<path style="fill:#141c34; stroke:none;" d="M1012 858C1010.95 861.665 1010.69 864.664 1014 867L1014 858L1012 858z"/>
<path style="fill:#fdfdfe; stroke:none;" d="M517 861C517.657 864.175 522.371 874.761 519.306 877.119C517.42 878.57 514.542 876.308 513 875.321C509.6 873.146 504.038 866.311 499.961 866.337C497.737 866.351 495.989 868.193 494 868.928C491.818 869.735 489.387 869.1 487.285 870.113C484.907 871.258 483.252 873.624 480.985 874.992C478.009 876.786 474.293 876.246 471.455 878.023C462.737 883.484 454.665 892.436 449 901C476.425 900.434 502.555 888.969 530 887.089C553.595 885.474 576.425 893.174 597 904L597 884C597 881.063 597.629 877.124 595.972 874.518C592.701 869.371 583.458 866.268 578 864.229C557.919 856.727 537.743 859.363 517 861M602 904C623.652 894.67 643.707 885.976 668 887.039C696.125 888.271 722.967 900.768 751 901C746.789 894.952 741.555 889.561 736.718 884C733.768 880.607 730.793 876.288 726.961 873.854C721.191 870.191 712.528 869.583 706 867.709C684.839 861.635 663.14 856.566 641 859.729C631.409 861.1 621.787 863.731 613 867.89C609.585 869.507 604.968 871.775 603.028 875.184C601.431 877.991 602 881.901 602 885L602 904z"/>
<path style="fill:#141c34; stroke:none;" d="M932 873L932 875L961 875L961 873L932 873M118 874C119.535 885.544 132.262 896.945 139.961 904.999C157.786 923.644 177.78 936.162 203 941.88C214.702 944.534 228.403 945.667 240 942C235.858 937.77 229.562 939 224 939C213.869 939 204.752 937.86 195 934.964C166.821 926.596 139.29 903.638 125 878C153.073 878.58 181.388 886.388 204 903.375C212.541 909.791 220.038 917.093 227.169 925C230.585 928.788 233.577 933.248 239 932C235.235 923.879 227.336 917.196 221 911.015C192.549 883.261 156.672 874 118 874M1016 933C1022.78 931.931 1026.98 924.88 1031.29 920C1037.3 913.196 1044.62 907.177 1052 901.91C1074.07 886.16 1101.97 878.224 1129 878C1124.58 886.866 1116.92 894.991 1110 902C1095.19 916.982 1078.32 929.351 1058 935.652C1048.62 938.56 1036.83 940.568 1027 939.911C1022.09 939.582 1015.96 937.088 1014 943C1022.68 943.373 1031.26 944.665 1040 943.83C1070.2 940.944 1095.82 924.87 1116.09 903C1123.2 895.331 1134.56 884.804 1136 874C1100.08 874 1067.02 881.947 1039 905.59C1031.38 912.023 1017.59 922.683 1016 933M239.148 878.043C232.822 881.562 238.706 891.067 244.772 887.778C251.226 884.278 245.419 874.555 239.148 878.043z"/>
<path style="fill:#fdfdfe; stroke:none;" d="M795 881L795 884L929 884L961 884C965.546 884 971.119 885.077 974 881L795 881M974 914L978 914C977.316 915.58 977.195 915.777 976 917C980.297 917.873 982.432 913.737 983.506 910C985.422 903.335 985.938 894.358 982.312 888.113C979.577 883.402 974.347 885.944 974.933 891.001C975.385 894.908 977.187 897.892 976.707 902C976.23 906.08 974.912 910.012 974 914M800 887C800.733 891.983 802.712 896.898 802.541 902C802.38 906.812 800.471 911.479 799 916C826.094 916 852.99 914.677 880 914.015C909.627 913.289 939.363 914 969 914L969 912L942 912L942 909L963 909C965.504 908.995 969.175 909.529 971.012 907.397C974.173 903.726 972.336 897.265 972 893C963.71 893 947.072 896.2 941 890L969 890L969 888L800 887M436 918C456.365 918 476.681 915.929 497 915.039C525.294 913.8 553.644 914 582 914C577.153 910.627 570.661 910.332 565 909.116C545.041 904.828 525.037 908.14 505 909C511.952 906.062 519.58 905.548 527 904.83C538.158 903.75 549.879 903.099 561 904.92C571.323 906.61 584.733 913.224 594 907C557.325 885.594 517.269 891.652 478 900.651C471.053 902.243 464.117 904.13 457 904.83C453.016 905.222 448.001 904.554 444.529 906.988C441.079 909.406 438.352 914.546 436 918M605 907C616.366 914.635 628.747 906.538 641 905.167C663.816 902.614 684.808 905.912 707 911C697.428 913.068 684.815 908.12 675 907.17C657.914 905.516 638.126 906.916 622 913C626.72 914.981 632.92 914 638 914C648.331 914 658.67 913.881 669 914.004C701.015 914.385 733.01 918 765 918C762.35 914.224 758.963 909.354 754.911 906.988C751.378 904.926 746.917 905.214 743 904.714C736.309 903.861 729.571 902.629 723 901.119C699.153 895.637 674.674 889.703 650 892.171C634.133 893.757 618.967 899.651 605 907M585 917C594.74 921.116 603.918 919.275 614 918C608.234 907.867 592.541 910.775 585 917z"/>
<path style="fill:#141c34; stroke:none;" d="M710 912C711.223 913.195 711.42 913.316 713 914C711.777 912.805 711.58 912.684 710 912M742 912C746.725 914.831 752.658 914 758 914L758 912L742 912z"/>
<path style="fill:#fdfdfe; stroke:none;" d="M871 918C876.462 920.292 884.113 919 890 919L930 919C924.818 915.896 917.852 917 912 917C898.351 917 884.544 916.288 871 918z"/>
<path style="fill:#141c34; stroke:none;" d="M284 931C289.234 938.43 296.582 944.582 303 951C319.843 967.843 338.625 983.833 358 997.71C366.449 1003.76 375.909 1013.31 386 1016.35C390.356 1017.66 395.502 1017 400 1017L425 1017L510 1017L788 1017L842 1017C849.907 1017 860.451 1018.81 868 1016.3C875.02 1013.96 881.995 1007.82 888 1003.58C902.934 993.01 916.988 981.171 931 969.411C940.461 961.469 949.266 952.734 958 944C962.216 939.784 967.349 935.882 969 930L496 930L351 930L307 930C299.573 930 291.152 928.886 284 931z"/>
<path style="fill:#fdfdfe; stroke:none;" d="M293 934C296.93 939.579 302.177 944.187 307 949C309.654 951.649 312.381 955.062 316 956.397C319.843 957.813 324.966 957 329 957C338.421 957 347.628 956.731 357 956.089C380.768 954.462 405.172 956 429 956L814 956L901 956L926 956C930.034 956 935.157 956.813 939 955.397C942.619 954.062 945.346 950.649 948 948C952.502 943.508 957.332 939.207 961 934L293 934M321 961C332.868 976.518 352.237 988.157 368 999.421C374.126 1003.8 381.584 1010.75 389 1012.58C398.387 1014.9 410.344 1013 420 1013L484 1013L787 1013L841 1013C848.622 1013 858.719 1014.72 866 1012.3C871.082 1010.6 875.694 1006.5 880 1003.42L903 986.909C912.346 980.209 926.964 971.576 932 961L321 961z"/>
<path style="fill:#141c34; stroke:none;" d="M916 1022C919.498 1028.19 931.658 1024.33 938 1025.21C941.002 1025.63 944.785 1027.77 947.681 1025.96C950.042 1024.48 950.234 1020.83 947.681 1019.43C945.773 1018.38 943.874 1019.25 942 1019.85C938.633 1020.93 935.508 1021 932 1021C953.886 1003.64 986.438 988.927 1015 990.04C1024.5 990.41 1034.73 991.797 1044 993.888C1049.99 995.239 1055.88 997.466 1062 998C1056.06 1005.35 1046.93 1010.68 1039 1015.68C1014.98 1030.82 988.515 1038.91 960 1036.91C947.234 1036.02 933.492 1027.79 921 1030C926.714 1036.21 938.075 1037.41 946 1039.37C977.737 1047.26 1011.57 1038.06 1039 1021.6C1047.02 1016.79 1054.75 1011.47 1062 1005.54C1064.03 1003.88 1068.36 1001.05 1068.36 998.055C1068.36 994.76 1062.33 993.791 1060 993.152C1050.85 990.643 1041.45 988.193 1032 987.166C1005.43 984.279 980.058 988.241 956 1000.27C942.395 1007.07 930.734 1018.44 916 1022M329 1009C329.092 1010.21 328.971 1011.78 329.603 1012.9C332.96 1018.84 340.032 1011.29 332.141 1009.23C331.195 1008.98 329.925 1009.05 329 1009M305.323 1020.03C300.572 1023.14 306.661 1028.38 310.677 1025.81C315.419 1022.77 309.336 1017.41 305.323 1020.03M626 1050C623.174 1055.3 621.467 1062.12 617.363 1066.61C613.077 1071.3 605.485 1073.08 600 1076C602.726 1081.08 608.302 1081.59 612.996 1084.36C617.254 1086.88 619.64 1090.56 621.572 1095C622.544 1097.23 623.818 1102.79 626.999 1102.79C630.151 1102.79 631.318 1097.19 632.312 1095C633.967 1091.35 635.656 1087.63 639.105 1085.35C644.148 1082.03 650.985 1081.62 654 1076C647.889 1073.14 640.037 1071.3 635.649 1065.81C631.628 1060.79 631.993 1053.22 626 1050z"/>
<path style="fill:#fdfdfe; stroke:none;" d="M627 1059C622.779 1067.87 618.209 1073.15 609 1077C612.665 1079.77 617.352 1080.9 620.61 1084.33C623.497 1087.37 624.696 1091.57 627 1095C629.304 1091.57 630.503 1087.37 633.39 1084.33C636.392 1081.17 640.691 1079.74 644 1077C640.35 1074.85 636.264 1073.02 633.39 1069.81C630.567 1066.66 629.332 1062.47 627 1059z"/>
<path style="fill:#141c34; stroke:none;" d="M444 1086C406.952 1064.92 361.014 1056.2 320 1069.34C308.739 1072.95 298.471 1078.39 288 1083.76C285.55 1085.01 278.359 1087.77 280.176 1091.65C281.501 1094.48 286.398 1095.96 289 1097.24C297.343 1101.35 306.147 1104.82 315 1107.66C348.306 1118.33 383.824 1117.18 416 1103.42C424.451 1099.81 439.63 1094.43 444 1086M810 1086C814.527 1094.73 829.402 1099.43 838 1103.31C869.748 1117.61 906.014 1118.22 939 1107.66C947.811 1104.83 956.698 1101.33 965 1097.24C967.601 1095.96 972.524 1094.47 973.824 1091.62C975.673 1087.58 968.512 1085.05 966 1083.69C955.743 1078.12 945.148 1072.92 934 1069.34C892.35 1056 847.881 1065.81 810 1086z"/>
<path style="fill:#fdfdfe; stroke:none;" d="M286 1090C294.063 1096.68 306.181 1099.76 316 1103C357.281 1116.62 399.023 1109.81 436 1088C428.25 1081.74 415.417 1078.47 406 1075.33C391.306 1070.44 375.533 1067.03 360 1067.03C333.915 1067.03 308.175 1076.92 286 1090M818 1088C834.154 1097.43 851.523 1105.06 870 1108.54C901.8 1114.54 939.11 1107.22 967 1091L967 1089C954.489 1083.79 943.037 1077.08 930 1073.03C901.895 1064.29 873.597 1066.6 846 1076C837.12 1079.03 825.327 1082.08 818 1088z"/>
<path style="fill:#141c34; stroke:none;" d="M516 1074C521.725 1075.69 528.06 1075 534 1075L564 1075C567.677 1075 572.292 1075.73 575.847 1074.68C577.176 1074.29 578.818 1073.11 577.824 1071.54C575.832 1068.4 566.206 1070 563 1070L529 1070C523.895 1070 518.749 1069.01 516 1074M738 1074C735.251 1069.01 730.105 1070 725 1070L691 1070C687.794 1070 678.168 1068.4 676.176 1071.54C675.182 1073.11 676.824 1074.29 678.153 1074.68C681.708 1075.73 686.323 1075 690 1075L720 1075C725.94 1075 732.275 1075.69 738 1074z"/>
<path style="fill:#fdfdfe; stroke:none;" d="M641 1127C644.734 1129.55 648.116 1129.02 652 1127C648.398 1125.5 644.78 1126.52 641 1127z"/>
</svg>
